<svg version="1.2" xmlns="http://www.w3.org/2000/svg" viewBox="0 0 320 100" width="320" height="100">
	<style>
		.s0 { fill: #ffffff }
	</style>
	<path id="PIKOBA" class="s0" aria-label="pikoba"  d="m37.7 68.5v23h-7.3v-59.8h7.3v6.6q2.3-3.9 5.7-5.7 3.5-1.9 8.4-1.9 8 0 13 6.2 5 6.3 5 16.5 0 10.2-5 16.5-5 6.2-13 6.2-4.9 0-8.4-1.8-3.4-1.9-5.7-5.8zm24.6-15.1q0-7.9-3.3-12.3-3.3-4.5-9-4.5-5.8 0-9.1 4.5-3.2 4.4-3.2 12.3 0 7.8 3.2 12.3 3.3 4.5 9.1 4.5 5.7 0 9-4.5 3.3-4.5 3.3-12.3zm-26.8 15.1v23h-7.2v-59.8h7.2v6.6q2.3-3.9 5.8-5.7 3.5-1.9 8.3-1.9 8.1 0 13.1 6.2 5 6.3 5 16.5 0 10.2-5 16.5-5 6.2-13.1 6.2-4.8 0-8.3-1.8-3.5-1.9-5.8-5.8zm24.7-15.1q0-7.9-3.3-12.3-3.3-4.5-9-4.5-5.8 0-9.1 4.5-3.3 4.4-3.3 12.3 0 7.8 3.3 12.3 3.3 4.5 9.1 4.5 5.7 0 9-4.5 3.3-4.5 3.3-12.3zm23.8 21.6v-43.3h7.3v43.3zm0-51.1v-9h7.2v9zm-2.1 51.1v-43.3h7.2v43.3zm0-51.1v-9h7.3v9zm26.4 51.1v-60.1h7.3v35.5l21.6-18.7h9.3l-23.4 20.3 24.4 23h-9.5l-22.4-21.1v21.1zm-2.1 0v-60.1h7.3v35.5l21.6-18.7h9.2l-23.4 20.3 24.4 23h-9.4l-22.4-21.1v21.1zm65.4-38.3q-5.8 0-9.2 4.5-3.4 4.4-3.4 12.2 0 7.8 3.4 12.2 3.4 4.5 9.2 4.5 5.8 0 9.2-4.5 3.4-4.5 3.4-12.2 0-7.7-3.4-12.2-3.4-4.5-9.2-4.5zm0-6q9.5 0 14.9 6 5.4 6 5.4 16.7 0 10.6-5.4 16.7-5.4 6-14.9 6-9.4 0-14.8-6-5.4-6.1-5.4-16.7 0-10.7 5.4-16.7 5.4-6 14.8-6zm-2.1 6q-5.8 0-9.2 4.5-3.4 4.4-3.4 12.2 0 7.8 3.4 12.2 3.4 4.5 9.2 4.5 5.8 0 9.2-4.5 3.4-4.5 3.4-12.2 0-7.7-3.4-12.2-3.4-4.5-9.2-4.5zm0-6q9.5 0 14.9 6 5.4 6 5.4 16.7 0 10.6-5.4 16.7-5.4 6-14.9 6-9.5 0-14.9-6-5.3-6.1-5.3-16.7 0-10.7 5.3-16.7 5.4-6 14.9-6zm68.2 22.7q0-7.9-3.3-12.3-3.2-4.5-9-4.5-5.7 0-9 4.5-3.3 4.4-3.3 12.3 0 7.8 3.3 12.3 3.3 4.5 9 4.5 5.8 0 9-4.5 3.3-4.5 3.3-12.3zm-24.6-38.5v23.4q2.3-3.9 5.7-5.7 3.5-1.9 8.4-1.9 8 0 13 6.2 5.1 6.3 5.1 16.5 0 10.2-5.1 16.5-5 6.2-13 6.2-4.9 0-8.4-1.8-3.4-1.9-5.7-5.8v6.5h-7.3v-60.1zm22.5 38.5q0-7.9-3.3-12.3-3.3-4.5-9-4.5-5.8 0-9.1 4.5-3.2 4.4-3.2 12.3 0 7.8 3.2 12.3 3.3 4.5 9.1 4.5 5.7 0 9-4.5 3.3-4.5 3.3-12.3zm-24.6-38.5v23.4q2.3-3.9 5.7-5.7 3.5-1.9 8.4-1.9 8 0 13 6.2 5 6.3 5 16.5 0 10.2-5 16.5-5 6.2-13 6.2-4.9 0-8.4-1.8-3.4-1.9-5.7-5.8v6.5h-7.3v-60.1zm75.7 38.3h-7.2q-8.8 0-12.2 2-3.3 2-3.3 6.7 0 3.8 2.5 6.1 2.5 2.2 6.9 2.2 6 0 9.7-4.2 3.6-4.2 3.6-11.2zm7.3-2.9v24.7h-7.3v-6.6q-2.5 4-6.2 5.9-3.7 1.8-9 1.8-6.8 0-10.8-3.7-4-3.8-4-10 0-7.3 5-11 5-3.7 14.9-3.7h10.1v-0.7q0-4.9-3.3-7.6-3.3-2.7-9.2-2.7-3.8 0-7.4 0.9-3.6 0.9-6.9 2.6v-6.5q4-1.5 7.8-2.3 3.7-0.8 7.2-0.8 9.6 0 14.3 4.9 4.8 4.9 4.8 14.8zm-9.4 2.9h-7.2q-8.8 0-12.2 2-3.4 2-3.4 6.7 0 3.8 2.6 6 2.5 2.3 6.9 2.3 6 0 9.6-4.2 3.7-4.2 3.7-11.2zm7.2-2.9v24.7h-7.2v-6.6q-2.5 3.9-6.2 5.8-3.7 1.9-9 1.9-6.8 0-10.8-3.7-4-3.8-4-10 0-7.3 4.9-11 5-3.8 14.9-3.8h10.2v-0.7q0-4.9-3.3-7.5-3.3-2.7-9.2-2.7-3.8 0-7.4 0.9-3.6 0.8-6.9 2.6v-6.6q4-1.5 7.7-2.2 3.8-0.8 7.3-0.8 9.6 0 14.3 4.9 4.7 4.9 4.7 14.8z"/>
</svg>
