<?xml version="1.0" encoding="UTF-8"?>
<svg viewBox="0 0 640 480" xmlns="http://www.w3.org/2000/svg">
 <path d="m160.1 141.25v85.876l25.197 14.548v-85.876l-25.197-14.548z" fill="#d3d7cf"/>
 <path d="m210.5 148.29v-7.0475l-25.197 14.548v85.876l25.197-14.548" fill="#888a85"/>
 <path d="m160.1 141.25l25.197-14.548 25.197 14.548-25.197 14.548-25.197-14.548z" fill="#eeeeec"/>
 <g fill="none">
  <path d="m160.08 141.21l25.221 14.588 25.197-14.548" stroke="#fff"/>
  <path d="m185.22 126.98l-25.147 14.524h-0.076981l0.0257 85.089 25.198 14.549 25.198-14.549v-85.064l-25.198-14.549v3.1e-5z" stroke="#2e3436" stroke-width="2"/>
 </g>
 <g fill="#729fcf">
  <path d="m162.52 152.92v8.7286l5.0394 2.9095v-8.7285l-5.0394-2.9095z"/>
  <path d="m167.56 155.83v8.7285" stroke="#fff" stroke-width="5"/>
  <path d="m167.56 155.83v8.7285l5.0394 2.9095v-8.7285l-5.0394-2.9095z"/>
  <path d="m172.6 158.74v8.7285" stroke="#fff" stroke-width="5"/>
  <path d="m172.6 158.74v8.7285l5.0394 2.9095v-8.7285l-5.0394-2.9095z"/>
  <path d="m177.64 161.65v8.7285" stroke="#fff" stroke-width="5"/>
  <path d="m177.64 161.65v8.7285l5.0394 2.9095v-8.7285l-5.0394-2.9095z"/>
  <path d="m182.68 164.56v8.7285" stroke="#fff" stroke-width="1.25"/>
  <path d="m162.52 167.7v8.7285l5.0394 2.9095v-8.7285l-5.0394-2.9095z"/>
  <path d="m167.56 170.61v8.7285" stroke="#fff" stroke-width="5"/>
  <path d="m167.56 170.61v8.7285l5.0394 2.9095v-8.7285l-5.0394-2.9095z"/>
  <path d="m172.6 173.52v8.7285" stroke="#fff" stroke-width="5"/>
  <path d="m172.6 173.52v8.7285l5.0394 2.9095v-8.7285l-5.0394-2.9095z"/>
  <path d="m177.64 176.43v8.7285" stroke="#fff" stroke-width="5"/>
  <path d="m177.64 176.43v8.7285l5.0394 2.9095v-8.7285l-5.0394-2.9095z"/>
  <path d="m182.68 179.34v8.7285" stroke="#fff" stroke-width="1.25"/>
  <path d="m162.52 182.48v8.7285l5.0394 2.9095v-8.7285l-5.0394-2.9095z"/>
  <path d="m167.56 185.39v8.7285" stroke="#fff" stroke-width="5"/>
  <path d="m167.56 185.39v8.7285l5.0394 2.9095v-8.7285l-5.0394-2.9095z"/>
  <path d="m172.6 188.3v8.7285" stroke="#fff" stroke-width="5"/>
  <path d="m172.6 188.3v8.7285l5.0394 2.9095v-8.7285l-5.0394-2.9095z"/>
  <path d="m177.64 191.21v8.7285" stroke="#fff" stroke-width="5"/>
  <path d="m177.64 191.21v8.7285l5.0394 2.9095v-8.7285l-5.0394-2.9095z"/>
  <path d="m182.68 194.12v8.7285" stroke="#fff" stroke-width="1.25"/>
  <path d="m162.52 197.26v8.7285l5.0394 2.9095v-8.7285l-5.0394-2.9095z"/>
  <path d="m167.56 200.17v8.7285" stroke="#fff" stroke-width="5"/>
  <path d="m167.56 200.17v8.7285l5.0394 2.9095v-8.7285l-5.0394-2.9095z"/>
  <path d="m172.6 203.08v8.7285" stroke="#fff" stroke-width="5"/>
  <path d="m172.6 203.08v8.7285l5.0394 2.9095v-8.7285l-5.0394-2.9095z"/>
  <path d="m177.64 205.99v8.7285" stroke="#fff" stroke-width="5"/>
  <path d="m177.64 205.99v8.7285l5.0394 2.9095v-8.7285l-5.0394-2.9095z"/>
  <path d="m182.68 208.9v8.7285" stroke="#fff" stroke-width="1.25"/>
 </g>
 <g fill="#3465a4">
  <path d="m207.87 152.92v8.7286l-5.0394 2.9095v-8.7285l5.0394-2.9095z"/>
  <path d="m202.84 155.83v8.7285" stroke="#fff" stroke-width="5"/>
  <path d="m202.84 155.83v8.7285l-5.0394 2.9095v-8.7285l5.0394-2.9095z"/>
  <path d="m197.8 158.74v8.7285" stroke="#fff" stroke-width="5"/>
  <path d="m197.8 158.74v8.7285l-5.0394 2.9095v-8.7285l5.0394-2.9095z"/>
  <path d="m192.76 161.65v8.7285" stroke="#fff" stroke-width="5"/>
  <path d="m192.76 161.65v8.7285l-5.0394 2.9095v-8.7285l5.0394-2.9095z"/>
  <path d="m187.72 164.56v8.7285" stroke="#fff" stroke-width="1.25"/>
  <path d="m207.87 167.7v8.7285l-5.0394 2.9095v-8.7285l5.0394-2.9095z"/>
  <path d="m202.84 170.61v8.7285" stroke="#fff" stroke-width="5"/>
  <path d="m202.84 170.61v8.7285l-5.0394 2.9095v-8.7285l5.0394-2.9095z"/>
  <path d="m197.8 173.52v8.7285" stroke="#fff" stroke-width="5"/>
  <path d="m197.8 173.52v8.7285l-5.0394 2.9095v-8.7285l5.0394-2.9095z"/>
  <path d="m192.76 176.43v8.7285" stroke="#fff" stroke-width="5"/>
  <path d="m192.76 176.43v8.7285l-5.0394 2.9095v-8.7285l5.0394-2.9095z"/>
  <path d="m187.72 179.34v8.7285" stroke="#fff" stroke-width="1.25"/>
  <path d="m207.87 182.48v8.7285l-5.0394 2.9095v-8.7285l5.0394-2.9095z"/>
  <path d="m202.84 185.39v8.7285" stroke="#fff" stroke-width="5"/>
  <path d="m202.84 185.39v8.7285l-5.0394 2.9095v-8.7285l5.0394-2.9095z"/>
  <path d="m197.8 188.3v8.7285" stroke="#fff" stroke-width="5"/>
  <path d="m197.8 188.3v8.7285l-5.0394 2.9095v-8.7285l5.0394-2.9095z"/>
  <path d="m192.76 191.21v8.7285" stroke="#fff" stroke-width="5"/>
  <path d="m192.76 191.21v8.7285l-5.0394 2.9095v-8.7285l5.0394-2.9095z"/>
  <path d="m187.72 194.12v8.7285" stroke="#fff" stroke-width="1.25"/>
  <path d="m207.87 197.26v8.7285l-5.0394 2.9095v-8.7285l5.0394-2.9095z"/>
  <path d="m202.84 200.17v8.7285" stroke="#fff" stroke-width="5"/>
  <path d="m202.84 200.17v8.7285l-5.0394 2.9095v-8.7285l5.0394-2.9095z"/>
  <path d="m197.8 203.08v8.7285" stroke="#fff" stroke-width="5"/>
  <path d="m197.8 203.08v8.7285l-5.0394 2.9095v-8.7285l5.0394-2.9095z"/>
  <path d="m192.76 205.99v8.7285" stroke="#fff"/>
  <path d="m203.65 217.55v12.013l-7.2975 4.2438v-12.013l7.2975-4.2439z"/>
  <path d="m192.76 205.99v8.7285l-5.0394 2.9095v-8.7285l5.0394-2.9095z"/>
  <path d="m187.72 208.9v8.7285" stroke="#fff" stroke-width="1.25"/>
 </g>
 <text transform="matrix(.82113 0 0 .82113 27.199 42.962)" x="157.975" y="190.911" font-family="Bitstream Vera Sans" font-size="40px"/>
 <path d="m203.65 217.55v12.013l-7.2975 4.2438v-12.013l7.2975-4.2439z" fill="#3465a4"/>
 <path d="m203.55 227.51v2.1595l-7.2975 4.2438v-2.1595l7.2975-4.2438z" fill="#eeeeec"/>
 <path d="m203.66 217.54l-2.643 1.5396 0.0726 9.8316 2.5704 0.6377v-12.009z" fill="#555753"/>
 <path d="m197.92 221.13v9.5456" fill="none" stroke="#bacae0" stroke-width=".25"/>
 <path d="m191.13 137.38v106.28l31.185 18.005v-106.28l-31.185-18.005z" fill="#d3d7cf"/>
 <path d="m253.5 146.1v-8.7223l-31.185 18.005v106.28l31.185-18.005" fill="#888a85"/>
 <path d="m191.13 137.38l31.185-18.005 31.185 18.005-31.185 18.005-31.185-18.005z" fill="#eeeeec"/>
 <g fill="none">
  <path d="m191.1 137.33l31.214 18.055 31.185-18.005" stroke="#fff"/>
  <path d="m222.22 119.73l-31.123 17.975h-0.095276l0.0318 105.31 31.186 18.007 31.186-18.007v-105.28l-31.186-18.007v3.1e-5z" stroke="#2e3436" stroke-width="2"/>
 </g>
 <g fill="#729fcf">
  <path d="m194.12 151.83v10.803l6.237 3.6009v-10.803l-6.237-3.6009z"/>
  <path d="m200.36 155.43v10.803" stroke="#fff" stroke-width="5"/>
  <path d="m200.36 155.43v10.803l6.237 3.6009v-10.803l-6.237-3.6009z"/>
  <path d="m206.59 159.03v10.803" stroke="#fff" stroke-width="5"/>
  <path d="m206.59 159.03v10.803l6.237 3.6009v-10.803l-6.237-3.6009z"/>
  <path d="m212.83 162.64v10.803" stroke="#fff" stroke-width="5"/>
  <path d="m212.83 162.64v10.803l6.237 3.6009v-10.803l-6.237-3.6009z"/>
  <path d="m219.07 166.24v10.803" stroke="#fff" stroke-width="1.25"/>
  <path d="m194.12 170.13v10.803l6.237 3.6009v-10.803l-6.237-3.6009z"/>
  <path d="m200.36 173.73v10.803" stroke="#fff" stroke-width="5"/>
  <path d="m200.36 173.73v10.803l6.237 3.6009v-10.803l-6.237-3.6009z"/>
  <path d="m206.59 177.33v10.803" stroke="#fff" stroke-width="5"/>
  <path d="m206.59 177.33v10.803l6.237 3.6009v-10.803l-6.237-3.601z"/>
  <path d="m212.83 180.93v10.803" stroke="#fff" stroke-width="5"/>
  <path d="m212.83 180.93v10.803l6.237 3.6009v-10.803l-6.237-3.6009z"/>
  <path d="m219.07 184.53v10.803" stroke="#fff" stroke-width="1.25"/>
  <path d="m194.12 188.42v10.803l6.237 3.6009v-10.803l-6.237-3.6009z"/>
  <path d="m200.36 192.02v10.803" stroke="#fff" stroke-width="5"/>
  <path d="m200.36 192.02v10.803l6.237 3.6009v-10.803l-6.237-3.6009z"/>
  <path d="m206.59 195.62v10.803" stroke="#fff" stroke-width="5"/>
  <path d="m206.59 195.62v10.803l6.237 3.6009v-10.803l-6.237-3.6009z"/>
  <path d="m212.83 199.22v10.803" stroke="#fff" stroke-width="5"/>
  <path d="m212.83 199.22v10.803l6.237 3.6009v-10.803l-6.237-3.6009z"/>
  <path d="m219.07 202.82v10.803" stroke="#fff" stroke-width="1.25"/>
  <path d="m194.12 206.71v10.803l6.237 3.6009v-10.803l-6.237-3.6009z"/>
  <path d="m200.36 210.31v10.803" stroke="#fff" stroke-width="5"/>
  <path d="m200.36 210.31v10.803l6.237 3.6009v-10.803l-6.237-3.6009z"/>
  <path d="m206.59 213.91v10.803" stroke="#fff" stroke-width="5"/>
  <path d="m206.59 213.91v10.803l6.237 3.6009v-10.803l-6.237-3.6009z"/>
  <path d="m212.83 217.51v10.803" stroke="#fff" stroke-width="5"/>
  <path d="m212.83 217.51v10.803l6.237 3.6009v-10.803l-6.237-3.6009z"/>
  <path d="m219.07 221.11v10.803" stroke="#fff" stroke-width="1.25"/>
 </g>
 <g fill="#3465a4">
  <path d="m250.25 151.83v10.803l-6.237 3.6009v-10.803l6.237-3.6009z"/>
  <path d="m244.01 155.43v10.803" stroke="#fff" stroke-width="5"/>
  <path d="m244.01 155.43v10.803l-6.237 3.6009v-10.803l6.237-3.6009z"/>
  <path d="m237.78 159.03v10.803" stroke="#fff" stroke-width="5"/>
  <path d="m237.78 159.03v10.803l-6.237 3.6009v-10.803l6.237-3.6009z"/>
  <path d="m231.54 162.64v10.803" stroke="#fff" stroke-width="5"/>
  <path d="m231.54 162.64v10.803l-6.237 3.6009v-10.803l6.237-3.6009z"/>
  <path d="m225.3 166.24v10.803" stroke="#fff" stroke-width="1.25"/>
  <path d="m250.25 170.13v10.803l-6.237 3.6009v-10.803l6.237-3.6009z"/>
  <path d="m244.01 173.73v10.803" stroke="#fff" stroke-width="5"/>
  <path d="m244.01 173.73v10.803l-6.237 3.6009v-10.803l6.237-3.6009z"/>
  <path d="m237.78 177.33v10.803" stroke="#fff" stroke-width="5"/>
  <path d="m237.78 177.33v10.803l-6.237 3.6009v-10.803l6.237-3.601z"/>
  <path d="m231.54 180.93v10.803" stroke="#fff" stroke-width="5"/>
  <path d="m231.54 180.93v10.803l-6.237 3.6009v-10.803l6.237-3.6009z"/>
  <path d="m225.3 184.53v10.803" stroke="#fff" stroke-width="1.25"/>
  <path d="m250.25 188.42v10.803l-6.237 3.6009v-10.803l6.237-3.6009z"/>
  <path d="m244.01 192.02v10.803" stroke="#fff" stroke-width="5"/>
  <path d="m244.01 192.02v10.803l-6.237 3.6009v-10.803l6.237-3.6009z"/>
  <path d="m237.78 195.62v10.803" stroke="#fff" stroke-width="5"/>
  <path d="m237.78 195.62v10.803l-6.237 3.6009v-10.803l6.237-3.6009z"/>
  <path d="m231.54 199.22v10.803" stroke="#fff" stroke-width="5"/>
  <path d="m231.54 199.22v10.803l-6.237 3.6009v-10.803l6.237-3.6009z"/>
  <path d="m225.3 202.82v10.803" stroke="#fff" stroke-width="1.25"/>
  <path d="m250.25 206.71v10.803l-6.237 3.6009v-10.803l6.237-3.6009z"/>
  <path d="m244.01 210.31v10.803" stroke="#fff" stroke-width="5"/>
  <path d="m244.01 210.31v10.803l-6.237 3.6009v-10.803l6.237-3.6009z"/>
  <path d="m237.78 213.91v10.803" stroke="#fff" stroke-width="5"/>
  <path d="m237.78 213.91v10.803l-6.237 3.6009v-10.803l6.237-3.6009z"/>
  <path d="m231.54 217.51v10.803" stroke="#fff"/>
  <path d="m245.02 231.81v14.868l-9.0317 5.2523v-14.868l9.0317-5.2524z"/>
  <path d="m231.54 217.51v10.803l-6.237 3.6009v-10.803l6.237-3.6009z"/>
  <path d="m225.3 221.11v10.803" stroke="#fff" stroke-width="1.25"/>
 </g>
 <text transform="matrix(1.0163 0 0 1.0163 -3.1059 -4.255)" x="187.245" y="210.587" font-family="Bitstream Vera Sans" font-size="40px"/>
 <path d="m245.02 231.81v14.868l-9.0317 5.2523v-14.868l9.0317-5.2524z" fill="#3465a4"/>
 <path d="m244.9 244.14v2.6727l-9.0317 5.2524v-2.6727l9.0317-5.2524z" fill="#eeeeec"/>
 <path d="m245.03 231.81l-3.2711 1.9055 0.0898 12.168 3.1813 0.7893v-14.863z" fill="#555753"/>
 <path d="m237.93 236.25v11.814" fill="none" stroke="#bacae0" stroke-width=".25"/>
 <path d="m226.15 136.25v127.77l37.173 21.645v-127.77l-37.173-21.645z" fill="#d3d7cf"/>
 <path d="m300.5 146.74v-10.486l-37.173 21.645v127.77l37.173-21.645" fill="#888a85"/>
 <path d="m226.15 136.25l37.173-21.645 37.173 21.645-37.173 21.645-37.173-21.645z" fill="#eeeeec"/>
 <g fill="none">
  <path d="m226.12 136.19l37.208 21.705 37.173-21.645" stroke="#fff"/>
  <path d="m263.21 115.03l-37.099 21.609h-0.11359l0.0379 126.6 37.175 21.647 37.175-21.647v-126.56l-37.175-21.648v3.1e-5z" stroke="#2e3436" stroke-width="2"/>
 </g>
 <g fill="#729fcf">
  <path d="m229.72 153.63v12.987l7.4346 4.3289v-12.987l-7.4346-4.329z"/>
  <path d="m237.15 157.96v12.987" stroke="#fff" stroke-width="5"/>
  <path d="m237.15 157.96v12.987l7.4346 4.3289v-12.987l-7.4346-4.3289z"/>
  <path d="m244.59 162.28v12.987" stroke="#fff" stroke-width="5"/>
  <path d="m244.59 162.28v12.987l7.4346 4.329v-12.987l-7.4346-4.329z"/>
  <path d="m252.02 166.61v12.987" stroke="#fff" stroke-width="5"/>
  <path d="m252.02 166.61v12.987l7.4346 4.3289v-12.987l-7.4346-4.329z"/>
  <path d="m259.46 170.94v12.987" stroke="#fff" stroke-width="1.25"/>
  <path d="m229.72 175.62v12.987l7.4346 4.3289v-12.987l-7.4346-4.329z"/>
  <path d="m237.15 179.95v12.987" stroke="#fff" stroke-width="5"/>
  <path d="m237.15 179.95v12.987l7.4346 4.3289v-12.987l-7.4346-4.3289z"/>
  <path d="m244.59 184.28v12.987" stroke="#fff" stroke-width="5"/>
  <path d="m244.59 184.28v12.987l7.4346 4.329v-12.987l-7.4346-4.329z"/>
  <path d="m252.02 188.6v12.987" stroke="#fff" stroke-width="5"/>
  <path d="m252.02 188.6v12.987l7.4346 4.329v-12.987l-7.4346-4.329z"/>
  <path d="m259.46 192.93v12.987" stroke="#fff" stroke-width="1.25"/>
  <path d="m229.72 197.61v12.987l7.4346 4.3289v-12.987l-7.4346-4.329z"/>
  <path d="m237.15 201.94v12.987" stroke="#fff" stroke-width="5"/>
  <path d="m237.15 201.94v12.987l7.4346 4.3289v-12.987l-7.4346-4.3289z"/>
  <path d="m244.59 206.27v12.987" stroke="#fff" stroke-width="5"/>
  <path d="m244.59 206.27v12.987l7.4346 4.329v-12.987l-7.4346-4.3289z"/>
  <path d="m252.02 210.6v12.987" stroke="#fff" stroke-width="5"/>
  <path d="m252.02 210.6v12.987l7.4346 4.3289v-12.987l-7.4346-4.329z"/>
  <path d="m259.46 214.92v12.987" stroke="#fff" stroke-width="1.25"/>
  <path d="m229.72 219.6v12.987l7.4346 4.3289v-12.987l-7.4346-4.329z"/>
  <path d="m237.15 223.93v12.987" stroke="#fff" stroke-width="5"/>
  <path d="m237.15 223.93v12.987l7.4346 4.329v-12.987l-7.4346-4.3289z"/>
  <path d="m244.59 228.26v12.987" stroke="#fff" stroke-width="5"/>
  <path d="m244.59 228.26v12.987l7.4346 4.329v-12.987l-7.4346-4.329z"/>
  <path d="m252.02 232.59v12.987" stroke="#fff" stroke-width="5"/>
  <path d="m252.02 232.59v12.987l7.4346 4.3289v-12.987l-7.4346-4.329z"/>
  <path d="m259.46 236.92v12.987" stroke="#fff" stroke-width="1.25"/>
 </g>
 <g fill="#3465a4">
  <path d="m296.63 153.63v12.987l-7.4346 4.3289v-12.987l7.4346-4.329z"/>
  <path d="m289.19 157.96v12.987" stroke="#fff" stroke-width="5"/>
  <path d="m289.19 157.96v12.987l-7.4346 4.3289v-12.987l7.4346-4.3289z"/>
  <path d="m281.76 162.28v12.987" stroke="#fff" stroke-width="5"/>
  <path d="m281.76 162.28v12.987l-7.4346 4.329v-12.987l7.4346-4.329z"/>
  <path d="m274.32 166.61v12.987" stroke="#fff" stroke-width="5"/>
  <path d="m274.32 166.61v12.987l-7.4345 4.3289v-12.987l7.4345-4.329z"/>
  <path d="m266.89 170.94v12.987" stroke="#fff" stroke-width="1.25"/>
  <path d="m296.63 175.62v12.987l-7.4346 4.3289v-12.987l7.4346-4.329z"/>
  <path d="m289.19 179.95v12.987" stroke="#fff" stroke-width="5"/>
  <path d="m289.19 179.95v12.987l-7.4346 4.3289v-12.987l7.4346-4.3289z"/>
  <path d="m281.76 184.28v12.987" stroke="#fff" stroke-width="5"/>
  <path d="m281.76 184.28v12.987l-7.4346 4.329v-12.987l7.4346-4.329z"/>
  <path d="m274.32 188.6v12.987" stroke="#fff" stroke-width="5"/>
  <path d="m274.32 188.6v12.987l-7.4345 4.329v-12.987l7.4345-4.329z"/>
  <path d="m266.89 192.93v12.987" stroke="#fff" stroke-width="1.25"/>
  <path d="m296.63 197.61v12.987l-7.4346 4.3289v-12.987l7.4346-4.329z"/>
  <path d="m289.19 201.94v12.987" stroke="#fff" stroke-width="5"/>
  <path d="m289.19 201.94v12.987l-7.4346 4.3289v-12.987l7.4346-4.3289z"/>
  <path d="m281.76 206.27v12.987" stroke="#fff" stroke-width="5"/>
  <path d="m281.76 206.27v12.987l-7.4346 4.329v-12.987l7.4346-4.3289z"/>
  <path d="m274.32 210.6v12.987" stroke="#fff" stroke-width="5"/>
  <path d="m274.32 210.6v12.987l-7.4345 4.3289v-12.987l7.4345-4.329z"/>
  <path d="m266.89 214.92v12.987" stroke="#fff" stroke-width="1.25"/>
  <path d="m296.63 219.6v12.987l-7.4346 4.3289v-12.987l7.4346-4.329z"/>
  <path d="m289.19 223.93v12.987" stroke="#fff" stroke-width="5"/>
  <path d="m289.19 223.93v12.987l-7.4346 4.329v-12.987l7.4346-4.3289z"/>
  <path d="m281.76 228.26v12.987" stroke="#fff" stroke-width="5"/>
  <path d="m281.76 228.26v12.987l-7.4345 4.3289v-12.987l7.4345-4.3289z"/>
  <path d="m274.32 232.59v12.987" stroke="#fff"/>
  <path d="m290.39 249.78v17.874l-10.766 6.3143v-17.874l10.766-6.3142z"/>
  <path d="m274.32 232.59v12.987l-7.4346 4.329v-12.987l7.4346-4.329z"/>
  <path d="m266.89 236.92v12.987" stroke="#fff" stroke-width="1.25"/>
 </g>
 <text transform="matrix(1.2114 0 0 1.2217 -51.86 -62.591)" x="225.618" y="233.974" font-family="Bitstream Vera Sans" font-size="40px"/>
 <path d="m290.39 249.78v17.874l-10.766 6.3143v-17.874l10.766-6.3142z" fill="#3465a4"/>
 <path d="m290.25 264.6v3.213l-10.766 6.3143v-3.213l10.766-6.3143z" fill="#eeeeec"/>
 <path d="m290.41 249.77l-3.8992 2.2908 0.1071 14.628 3.7921 0.9489v-17.868z" fill="#555753"/>
 <path d="m281.95 255.11v14.202" fill="none" stroke="#bacae0" stroke-width=".25"/>
</svg>
