<?xml version="1.0" encoding="UTF-8"?>
<svg viewBox="0 0 630 370" xmlns="http://www.w3.org/2000/svg">
 <defs>
  <linearGradient id="h" x1=".46925" x2=".99997" y1=".23434" y2=".49997">
   <stop stop-color="#85d7d8" offset="0"/>
   <stop stop-color="#85d7d8" stop-opacity="0" offset="1"/>
  </linearGradient>
  <linearGradient id="l" x1="-.001812" x2="1.0018" y1=".50001" y2=".50001">
   <stop stop-color="#e7e4b3" offset="0"/>
   <stop stop-color="#e7e4b3" stop-opacity="0" offset="1"/>
  </linearGradient>
  <linearGradient id="i" x1=".48942" x2="1.0123" y1=".28897" y2=".52971">
   <stop stop-color="#85d7d8" offset="0"/>
   <stop stop-color="#85d7d8" stop-opacity="0" offset="1"/>
  </linearGradient>
  <linearGradient id="k" x1=".60295" x2=".9937" y1=".32492" y2=".52903">
   <stop stop-color="#80c7c8" offset="0"/>
   <stop stop-color="#80c7c8" stop-opacity="0" offset="1"/>
  </linearGradient>
  <linearGradient id="j" x1=".3704" x2=".98329" y1=".26171" y2=".52216">
   <stop stop-color="#73bdbd" offset="0"/>
   <stop stop-color="#73bdbd" stop-opacity="0" offset="1"/>
  </linearGradient>
  <linearGradient id="g" x1=".013793" x2="1.01" y1=".99696" y2=".50001">
   <stop offset="0"/>
   <stop stop-opacity="0" offset="1"/>
  </linearGradient>
 </defs>
 <g fill-rule="evenodd" stroke="#000">
  <path d="m311.53 360.01l6.061-200.01-106.95-98.995-84.975 8.0812-82.832 90.914-6.0609 185.87 274.76 14.142z" fill="#f9fed2"/>
  <path d="m267.09 42.82l20.203 14.142h10.102l-2.0203-44.447h-26.264l-2.0203 30.305z" fill="#e4eff1"/>
  <path d="m208.49 10.5l-114.56 61.438 116.84-11.156 126.91 116.09 121.34 27.562-61.626-82.814-43.437-34.342-143.78-76.312 26 46.938-0.9375 0.0938-26.75-47.5zm-80.938 58.844l-31.719 3.4375-85.344 91.25 22.844 7.25 94.219-101.94z" fill="#e39355"/>
  <path d="m311.53 359.5l6.566-200.01 17.678 17.173 81.822 19.698-15.152 16.162 10.102 6.0609v125.26l-101.02 15.657z" fill="#fefeda"/>
  <path d="m414.57 221.62l149.5 3.0305 2.0203 129.3-153.54-11.112 2.0203-121.22z" fill="none"/>
  <path d="m413.56 222.63l-9.0914-10.102 12.122-18.183 40.406 10.102-58.589-80.812 167.69 1.0102 29.294 19.193-17.172 80.812-164.65-2.0203z" fill="#e89a5c"/>
  <path d="m566.09 353.95l34.345-12.122-2.0203-111.12-8.0812-64.65-12.122 56.569-12.122 1.0101v130.31z" fill="#fefeda"/>
  <path d="m597.41 139.79l13.132 13.132 8.0812 71.721-22.223-2.0203-6.0609-52.528 7.071-30.305z" fill="#bb8044"/>
  <path d="m566.34 123.34l31.847 17.071-2.6838 3.9391-29.163-21.01z" fill="#e89a5c"/>
  <path d="m174.68 206.01l95.978 1.9153 2.6737-88.382-96.186-2.9255-2.4652 89.392z" fill="#e9eded" stroke-width=".914"/>
  <path d="m183.24 199.9l78.792 2.0203 2.0203-75.761-78.287-2.5254-2.5254 76.266z" fill="url(#k)"/>
  <path d="m101.93 235.25l47.982 1.5152v-123.24l-47.982-1.5152v123.24z" fill="#e7f2f1"/>
  <path d="m139.81 223.63l1.0101-99.489-30.305-1.0102 0.5051 102.52 28.789-2.0203z" fill="url(#j)" stroke-width="1.005"/>
  <path d="m137.43 247.25l-3.2143 102.67-70.343-3.0788 3.806-101.54 69.751 1.9415z" fill="#a27c26" stroke-width=".98"/>
  <path d="m172.13 322.46l119.2 7.2444v-94.954l-116.81-4.4083-2.388 92.118z" fill="#e4eeef"/>
  <path d="m183.66 244.01l96.852 3.5714v68.568l-98.281-6.6526 1.4286-65.487z" fill="url(#i)"/>
  <path d="m381.12 347.92l-1.3465-90.466 14.676 6.0807 0.9521 82.51-14.282 1.8752z" fill="#edf3f1" stroke-width=".935"/>
  <path d="m556.93 200.06l8.5714-37.143h-22.857l-12.857 35.714 27.143 1.4286z" fill="none"/>
  <path d="m22.628 240.81l116.67 2.0203 10.607-4.0406 0.5051-16.668-14.647 2.5254h-113.14v16.162z" fill="#e1e14f"/>
  <g fill="none">
   <path d="m23.139 225.67l0.5106-37.739 109.27 1.9863 18.792-4.2514-0.307 36.528-12.869 2.9794-115.4 0.4966z" stroke-width=".997"/>
   <path d="m23.134 205.45l114.15 1.5152"/>
   <path d="m22.358 215.77l113.91 1.306"/>
   <path d="m24.144 195.35l113.14 1.5152"/>
   <path d="m137.28 196.87l14.647-3.0305"/>
   <path d="m137.28 206.97l14.142-4.0406"/>
   <path d="m136.27 216.82l15.823-5.6784"/>
   <path d="m48 188.28l-1.0714 36.071"/>
   <path d="m78.357 188.28l-0.7143 35.714"/>
   <path d="m110.5 188.99l-0.3571 35"/>
   <path d="m23.714 187.56l17.857-6.0714"/>
   <path d="m24.071 195.78l17.5-5.3571"/>
   <path d="m24.071 205.42l17.143-4.6429"/>
   <path d="m22.286 216.13l18.571-5.3571"/>
   <path d="m22.643 223.99l18.214-5"/>
  </g>
 </g>
 <g stroke-width="48">
  <rect x="75.993" y="258.87" width="50.508" height="36.365" rx="7.3162" ry="7.3162" fill="url(#h)"/>
  <rect x="115.56" y="311.52" width="14.142" height="6.0609" rx="3.0305" ry="3.0305" fill="#0f1919"/>
 </g>
 <g fill-rule="evenodd">
  <g stroke="#000">
   <path d="m16.568 166.06l86.873-92.934" fill="none"/>
   <path d="m10.002 163.53l84.853-91.419 32.83-3.0305-92.934 103.04-24.749-8.5863z" fill="#bb8044"/>
   <path d="m579.22 253.94l1.0101 29.294 6.0609-8.0812v-28.284l-7.071 7.0711z" fill="#8ed5de"/>
   <path d="m413.14 343.85l151.52 10.102v-129.3l-151.52-1.0102v120.21z" fill="#fefeda"/>
  </g>
  <path d="m41.403 166.28l86.281-87.097 88.893-6.0609 101.61 87.934-107.08-100.18-83.424 8.2038-86.281 97.199z" fill="url(#l)"/>
  <path d="m319.79 162.92l97.143 145.71 27.143-67.143h115.71l25.714 50 11.429-72.857-5.7143-53.571-12.857 57.143-162.86-0.7143-11.429-8.5714 10-17.143-75.714-17.143-18.571-15.714z" fill="#b9b065" fill-opacity=".335"/>
  <path d="m414.07 224.35l-10-11.429 12.857-17.143 37.143 8.5714-8.5714 18.745-31.429 1.2552z" fill-opacity=".619" stroke="url(#g)"/>
  <path d="m448.36 345.78l104.29 8.5714v-92.857l-104.29-4.2857v88.571z" fill="#edf3f1" stroke="#000"/>
 </g>
 <rect x="460.02" y="296.37" width="5.0508" height="17.173" rx="2.5254" ry="3.0305" fill="#121614" stroke-width="48"/>
</svg>
