<?xml version="1.0" encoding="UTF-8"?>
<svg viewBox="0 0 200.29518 100.55108" xmlns="http://www.w3.org/2000/svg">
 <g transform="matrix(.59261 0 0 .59261 -1.431 -3.731)">
  <path d="m84 70c-4.7107-2.4574-7.492-9.1513-13.003-9.6011-5.2005-0.4244-8.5242 5.4956-12.911 4.9861-7.0474-0.8184-11.577-7.4572-20.071-4.8711-10.001 3.0448-18.983 16.179-27.054 22.616-3.1411 2.5055-7.9825 5.4752-8.5092 9.8696-0.57728 4.8164 5.8182 11.627 8.9236 14.852 5.728 5.948 19.98 3.148 27.625 3.148 25.391 0 50.667 1.998 76 2 10.288 1e-3 31.834-5.016 32 9l18 0.725 14 6.275c2.204 12.216 14.292 23.145 23.914 30.11 28.918 20.929 71.65 23.425 101.09 1.54 26.735-19.878 40-52.289 35.559-85.226-1.242-9.2041-7.351-17.531-8.559-26.424-8.591-8.2363-14.186-18.504-24.09-25.67-29.149-21.093-70.776-23.342-100.91-2.5563-8.407 5.7992-15.397 13-21.417 21.226-4.027 5.5017-7.499 13.316-14.598 15.451-6.139 1.8472-10.787-4.912-16.926-3.9599-4.473 0.6937-3.439 6.2639-7.207 7.9051-2.141 0.9327-15.059 5.3164-16.682 4.8704-3.213-0.883-4.372-4.9916-8.185-4.7207-5.028 0.3571-6.647 6.6146-11.14 7.7022-4.047 0.9795-6.956-4.7773-9.8597-6.6451-6.664-4.2875-13.002 1.7385-15.985 7.3966z"/>
  <path d="m177 59c11.327-5.8764 17.588-19.47 27.001-27.921 17.341-15.57 43.452-21.076 65.999-16.768 9.994 1.9098 19.295 6.2105 27.961 11.409 62.665 37.593 35.238 136.32-34.961 143.11-21.978 2.127-43.537-4.179-60-19.001-9.307-8.379-16.902-25.457-30-27.829 9.521 6.926 14.208 17.52 22.174 25.957 8.853 9.377 19.994 15.2 31.826 19.745 12.887 4.951 26.437 5.792 40 4.248 12.033-1.37 24.003-6.585 33.996-13.284 9.374-6.284 16.171-14.271 22.278-23.666 18.315-28.179 17.655-65.644-2.468-92.907-24.828-33.635-78.689-44.051-112.72-18.082-12.025 9.175-24.603 21.078-31.081 34.988m115 12.468c-26.667 5.1169-18.821 45.915 8 41.203 26.85-4.716 18.249-46.239-8-41.203z" fill="#fff"/>
 </g>
</svg>
